<mxfile host="app.diagrams.net" agent="Mozilla/5.0 (Windows NT 10.0; Win64; x64) AppleWebKit/537.36 (KHTML, like Gecko) Chrome/138.0.0.0 Safari/537.36 Edg/138.0.0.0" version="28.0.7">
  <diagram name="Page-1" id="NHgiEFflT9iurcdkstD3">
    <mxGraphModel dx="1426" dy="881" grid="1" gridSize="10" guides="1" tooltips="1" connect="1" arrows="1" fold="1" page="1" pageScale="1" pageWidth="850" pageHeight="1100" math="0" shadow="0">
      <root>
        <mxCell id="0" />
        <mxCell id="1" parent="0" />
        <mxCell id="0p1A3efAWXBUKbrWdsxH-5" value="" style="edgeStyle=orthogonalEdgeStyle;rounded=0;orthogonalLoop=1;jettySize=auto;html=1;fontSize=14;" edge="1" parent="1" source="0p1A3efAWXBUKbrWdsxH-2" target="0p1A3efAWXBUKbrWdsxH-4">
          <mxGeometry relative="1" as="geometry" />
        </mxCell>
        <mxCell id="0p1A3efAWXBUKbrWdsxH-2" value="จัดซื้อเปิด PO ซื้อ RM" style="rounded=1;whiteSpace=wrap;html=1;fillColor=#b1ddf0;strokeColor=#10739e;fontSize=14;" vertex="1" parent="1">
          <mxGeometry x="250" y="110" width="120" height="60" as="geometry" />
        </mxCell>
        <mxCell id="0p1A3efAWXBUKbrWdsxH-7" value="" style="edgeStyle=orthogonalEdgeStyle;rounded=0;orthogonalLoop=1;jettySize=auto;html=1;fontSize=14;" edge="1" parent="1" source="0p1A3efAWXBUKbrWdsxH-4" target="0p1A3efAWXBUKbrWdsxH-6">
          <mxGeometry relative="1" as="geometry" />
        </mxCell>
        <mxCell id="0p1A3efAWXBUKbrWdsxH-4" value="PD (โรงคัด) คัด รับเข้า พร้อมคีย์ข้อมูล" style="rounded=1;whiteSpace=wrap;html=1;fillColor=#b1ddf0;strokeColor=#10739e;fontSize=14;" vertex="1" parent="1">
          <mxGeometry x="250" y="200" width="120" height="60" as="geometry" />
        </mxCell>
        <mxCell id="0p1A3efAWXBUKbrWdsxH-9" value="" style="edgeStyle=orthogonalEdgeStyle;rounded=0;orthogonalLoop=1;jettySize=auto;html=1;" edge="1" parent="1" source="0p1A3efAWXBUKbrWdsxH-6" target="0p1A3efAWXBUKbrWdsxH-8">
          <mxGeometry relative="1" as="geometry" />
        </mxCell>
        <mxCell id="0p1A3efAWXBUKbrWdsxH-6" value="PD (ตัดแต่ง) เบิกออกไปใช้ผลิตใหม่ พร้อมคีย์ข้อมูล" style="rounded=1;whiteSpace=wrap;html=1;fillColor=#b1ddf0;strokeColor=#10739e;fontSize=14;" vertex="1" parent="1">
          <mxGeometry x="250" y="290" width="120" height="60" as="geometry" />
        </mxCell>
        <mxCell id="0p1A3efAWXBUKbrWdsxH-8" value="จบ" style="ellipse;whiteSpace=wrap;html=1;aspect=fixed;fontSize=14;" vertex="1" parent="1">
          <mxGeometry x="290" y="390" width="40" height="40" as="geometry" />
        </mxCell>
      </root>
    </mxGraphModel>
  </diagram>
</mxfile>
